<?xml version="1.0" ?><svg id="OBJECT" viewBox="0 0 512 512" xmlns="http://www.w3.org/2000/svg"><defs><style>.cls-1{fill:#bddbff;}.cls-2{fill:#3d9ae2;}.cls-3{fill:#fff;}</style></defs><title/><path class="cls-1" d="M27.5,81h457a20,20,0,0,1,20,20v70a0,0,0,0,1,0,0H7.5a0,0,0,0,1,0,0V101A20,20,0,0,1,27.5,81Z"/><path class="cls-2" d="M504.5,178.5H7.5A7.5,7.5,0,0,1,0,171V101A27.54,27.54,0,0,1,27.5,73.5h457A27.54,27.54,0,0,1,512,101v70A7.5,7.5,0,0,1,504.5,178.5ZM15,163.5H497V101a12.52,12.52,0,0,0-12.5-12.5H27.5A12.52,12.52,0,0,0,15,101Z"/><path class="cls-1" d="M7.5,171h497a0,0,0,0,1,0,0V484.5a20,20,0,0,1-20,20H27.5a20,20,0,0,1-20-20V171A0,0,0,0,1,7.5,171Z"/><path class="cls-2" d="M484.5,512H27.5A27.54,27.54,0,0,1,0,484.5V171a7.5,7.5,0,0,1,7.5-7.5h497A7.5,7.5,0,0,1,512,171V484.5A27.54,27.54,0,0,1,484.5,512ZM15,178.5v306A12.52,12.52,0,0,0,27.5,497h457A12.52,12.52,0,0,0,497,484.5v-306Z"/><polygon class="cls-3" points="46 171 46 451 386 451 466 371 466 171 46 171"/><path class="cls-2" d="M386,458.5H46a7.5,7.5,0,0,1-7.5-7.5V171a7.5,7.5,0,0,1,7.5-7.5H466a7.5,7.5,0,0,1,7.5,7.5V371a7.47,7.47,0,0,1-2.2,5.3l-80,80A7.47,7.47,0,0,1,386,458.5Zm-332.5-15H382.89l75.61-75.61V178.5H53.5Z"/><rect class="cls-1" height="40" width="40" x="81" y="201"/><path class="cls-2" d="M121,248.5H81a7.5,7.5,0,0,1-7.5-7.5V201a7.5,7.5,0,0,1,7.5-7.5h40a7.5,7.5,0,0,1,7.5,7.5v40A7.5,7.5,0,0,1,121,248.5Zm-32.5-15h25v-25h-25Z"/><rect class="cls-1" height="40" width="40" x="184.33" y="201"/><path class="cls-2" d="M224.33,248.5h-40a7.5,7.5,0,0,1-7.5-7.5V201a7.5,7.5,0,0,1,7.5-7.5h40a7.5,7.5,0,0,1,7.5,7.5v40A7.5,7.5,0,0,1,224.33,248.5Zm-32.5-15h25v-25h-25Z"/><rect class="cls-1" height="40" width="40" x="287.67" y="201"/><path class="cls-2" d="M327.67,248.5h-40a7.5,7.5,0,0,1-7.5-7.5V201a7.5,7.5,0,0,1,7.5-7.5h40a7.5,7.5,0,0,1,7.5,7.5v40A7.5,7.5,0,0,1,327.67,248.5Zm-32.5-15h25v-25h-25Z"/><rect class="cls-1" height="40" width="40" x="391" y="201"/><path class="cls-2" d="M431,248.5H391a7.5,7.5,0,0,1-7.5-7.5V201a7.5,7.5,0,0,1,7.5-7.5h40a7.5,7.5,0,0,1,7.5,7.5v40A7.5,7.5,0,0,1,431,248.5Zm-32.5-15h25v-25h-25Z"/><rect class="cls-1" height="40" width="40" x="81" y="281"/><path class="cls-2" d="M121,328.5H81a7.5,7.5,0,0,1-7.5-7.5V281a7.5,7.5,0,0,1,7.5-7.5h40a7.5,7.5,0,0,1,7.5,7.5v40A7.5,7.5,0,0,1,121,328.5Zm-32.5-15h25v-25h-25Z"/><rect class="cls-1" height="40" width="40" x="184.33" y="281"/><path class="cls-2" d="M224.33,328.5h-40a7.5,7.5,0,0,1-7.5-7.5V281a7.5,7.5,0,0,1,7.5-7.5h40a7.5,7.5,0,0,1,7.5,7.5v40A7.5,7.5,0,0,1,224.33,328.5Zm-32.5-15h25v-25h-25Z"/><rect class="cls-1" height="40" width="40" x="287.67" y="281"/><path class="cls-2" d="M327.67,328.5h-40a7.5,7.5,0,0,1-7.5-7.5V281a7.5,7.5,0,0,1,7.5-7.5h40a7.5,7.5,0,0,1,7.5,7.5v40A7.5,7.5,0,0,1,327.67,328.5Zm-32.5-15h25v-25h-25Z"/><rect class="cls-1" height="40" width="40" x="391" y="281"/><path class="cls-2" d="M431,328.5H391a7.5,7.5,0,0,1-7.5-7.5V281a7.5,7.5,0,0,1,7.5-7.5h40a7.5,7.5,0,0,1,7.5,7.5v40A7.5,7.5,0,0,1,431,328.5Zm-32.5-15h25v-25h-25Z"/><rect class="cls-1" height="40" width="40" x="81" y="361"/><path class="cls-2" d="M121,408.5H81a7.5,7.5,0,0,1-7.5-7.5V361a7.5,7.5,0,0,1,7.5-7.5h40a7.5,7.5,0,0,1,7.5,7.5v40A7.5,7.5,0,0,1,121,408.5Zm-32.5-15h25v-25h-25Z"/><rect class="cls-1" height="40" width="40" x="184.33" y="361"/><path class="cls-2" d="M224.33,408.5h-40a7.5,7.5,0,0,1-7.5-7.5V361a7.5,7.5,0,0,1,7.5-7.5h40a7.5,7.5,0,0,1,7.5,7.5v40A7.5,7.5,0,0,1,224.33,408.5Zm-32.5-15h25v-25h-25Z"/><rect class="cls-1" height="40" width="40" x="287.67" y="361"/><path class="cls-2" d="M327.67,408.5h-40a7.5,7.5,0,0,1-7.5-7.5V361a7.5,7.5,0,0,1,7.5-7.5h40a7.5,7.5,0,0,1,7.5,7.5v40A7.5,7.5,0,0,1,327.67,408.5Zm-32.5-15h25v-25h-25Z"/><polygon class="cls-1" points="386 451 386 371 466 371 386 451"/><path class="cls-2" d="M386,458.5a7.5,7.5,0,0,1-7.5-7.5V371a7.5,7.5,0,0,1,7.5-7.5h80a7.5,7.5,0,0,1,5.3,12.8l-80,80A7.46,7.46,0,0,1,386,458.5Zm7.5-80v54.39l54.39-54.39Z"/><path class="cls-2" d="M111,135A37.54,37.54,0,0,1,73.5,97.5v-60a37.5,37.5,0,0,1,75,0V81a7.5,7.5,0,0,1-15,0V37.5a22.5,22.5,0,0,0-45,0v60A22.52,22.52,0,0,0,111,120a7.5,7.5,0,0,1,0,15Z"/><path class="cls-2" d="M401,135a37.54,37.54,0,0,1-37.5-37.5v-60a37.5,37.5,0,0,1,75,0V81a7.5,7.5,0,0,1-15,0V37.5a22.5,22.5,0,0,0-45,0v60A22.52,22.52,0,0,0,401,120a7.5,7.5,0,0,1,0,15Z"/></svg>